<svg width="20" height="14" viewBox="0 0 20 14" fill="none" xmlns="http://www.w3.org/2000/svg">
<path d="M2.29102 0C2.49429 6.29411e-05 2.68668 0.062875 2.84766 0.170898L3.47754 3.09766L3.5625 3.49316H4.20703L5.57812 7.47656C5.88388 8.36475 7.13433 8.37954 7.46094 7.49902L7.72461 6.78711C7.80657 6.56583 7.80754 6.32257 7.72754 6.10059L6.78711 3.49316H13.042L12.0889 6.09277C12.006 6.31882 12.0072 6.56795 12.0928 6.79297L12.377 7.53906C12.7102 8.41314 13.9546 8.3918 14.2578 7.50684L16.5957 0.675781C16.7342 0.271749 17.1149 0.000282817 17.542 0H18.8486C19.5523 8.46606e-05 20.0359 0.707689 19.7803 1.36328L15.167 13.1865C15.0171 13.5698 14.6479 13.8221 14.2363 13.8223H12.8232C12.419 13.822 12.0541 13.5786 11.8994 13.2051L10.8438 10.6543C10.5023 9.82951 9.33286 9.83124 8.99414 10.6572L7.9502 13.2021C7.79615 13.5773 7.43098 13.8223 7.02539 13.8223H5.5957C5.1837 13.8218 4.81337 13.5686 4.66406 13.1846L0.0683594 1.3623C-0.186165 0.70712 0.297244 0.000583676 1 0H2.29102ZM8.62012 7.7168C8.30907 7.71776 8.05575 8.28014 8.05566 8.97363C8.05566 9.66729 8.30901 10.2295 8.62012 10.2305C8.93137 10.2299 9.18359 9.66753 9.18359 8.97363C9.18351 8.2799 8.93131 7.71738 8.62012 7.7168ZM11.2363 7.7168C10.9249 7.71686 10.6719 8.27952 10.6719 8.97363C10.6719 9.66785 10.9249 10.2304 11.2363 10.2305C11.5476 10.2299 11.7998 9.66753 11.7998 8.97363C11.7998 8.27984 11.5475 7.71738 11.2363 7.7168Z" fill="#0077D4"/>
<path d="M3.49316 12.3936L3.23633 13.1416C3.09744 13.5448 2.71741 13.816 2.29102 13.8164H1C0.297239 13.8158 -0.186177 13.1093 0.0683594 12.4541L1.7959 8.00684L3.49316 12.3936ZM19.7803 12.4531C20.0356 13.1085 19.5519 13.8159 18.8486 13.8164H17.542C17.115 13.8161 16.7342 13.5446 16.5957 13.1406L16.3428 12.4033L18.0449 8.00586L19.7803 12.4531ZM3.56055 3.48535H9.21094C9.5948 3.875 10.2438 3.87514 10.6279 3.48535H16.2822L17.5068 6.62598L15.8398 10.9336L14.2578 6.30957C13.9546 5.42467 12.7103 5.40347 12.377 6.27734L12.0928 7.02344C12.0072 7.24846 12.006 7.49758 12.0889 7.72363L13.8223 12.4531C14.0611 13.1054 13.5784 13.7964 12.8838 13.7969H12.082C11.6495 13.7966 11.266 13.5177 11.1318 13.1064L10.8662 12.2939C10.5661 11.3742 9.2649 11.3742 8.96484 12.2939L8.7002 13.1064C8.56604 13.5177 8.18156 13.7966 7.74902 13.7969H6.95898C6.2667 13.7965 5.78314 13.1094 6.01758 12.458L7.72754 7.71582C7.80745 7.49396 7.80646 7.25045 7.72461 7.0293L7.46094 6.31738C7.13435 5.43693 5.88399 5.45185 5.57812 6.33984L3.99805 10.9277L2.33301 6.62598L3.55762 3.47656L3.56055 3.48535Z" fill="#0077D4"/>
</svg>
