<svg width="28" height="37" viewBox="0 0 28 37" fill="none" xmlns="http://www.w3.org/2000/svg">
<path d="M14 0C21.732 0 28 6.26799 28 14C28 15.392 27.8786 16.5586 27.5234 17.7578C27.1694 18.9531 26.5902 20.1568 25.7031 21.6318C23.9415 24.561 20.8902 28.6766 15.7988 36.0576V36.0586C14.9296 37.3142 13.0704 37.3141 12.2012 36.0586V36.0576C7.10976 28.6766 4.05852 24.561 2.29688 21.6318C1.40978 20.1568 0.83056 18.9531 0.476562 17.7578C0.121432 16.5586 0 15.392 0 14C0 6.26799 6.26799 0 14 0Z" fill="#C81111"/>
</svg>
